<?xml version="1.0" encoding="UTF-8"?>
<svg version="1.1" xmlns="http://www.w3.org/2000/svg" width="500" height="500">
<path d="M0 0 C165 0 330 0 500 0 C500 165 500 330 500 500 C335 500 170 500 0 500 C0 335 0 170 0 0 Z " fill="#000000" transform="translate(0,0)"/>
<path d="M0 0 C1.0709919 -0.01354271 1.0709919 -0.01354271 2.16362 -0.02735901 C3.67406019 -0.04185661 5.18456311 -0.05074705 6.69506836 -0.05444336 C8.99376852 -0.06631356 11.28975918 -0.11547202 13.58789062 -0.16601562 C15.05858071 -0.17548378 16.52928722 -0.18271694 18 -0.1875 C19.02218376 -0.21679848 19.02218376 -0.21679848 20.0650177 -0.24668884 C24.35281566 -0.20663023 27.23015995 0.74678216 30.4555254 3.60568905 C33.09381918 7.35070887 32.38493142 11.9565339 32.23413086 16.35253906 C32.2206662 17.46047318 32.20720154 18.56840729 32.19332886 19.70991516 C32.1615823 22.11420527 32.11672317 24.51834983 32.06031609 26.92218781 C31.97585293 30.7312182 31.93629788 34.53823162 31.91029358 38.3480835 C31.8313472 49.17795559 31.69654437 60.00570361 31.4699707 70.83349609 C31.33185233 77.45944584 31.27335757 84.0834261 31.25750923 90.71096039 C31.23697714 93.23263275 31.18855845 95.75424121 31.11146355 98.27481842 C30.10478528 110.88476685 30.10478528 110.88476685 34.19459915 122.29069519 C38.24773335 125.75538343 42.77253924 127.47927545 47.69921875 129.37109375 C49.9828508 131.19670325 50.56148487 131.86147841 51.32421875 134.68359375 C50.31402209 139.02743938 47.25626069 140.90056644 43.69921875 143.37109375 C35.66256954 148.37109375 35.66256954 148.37109375 32.69921875 148.37109375 C32.73731353 157.13384123 32.79672961 165.8961125 32.88312149 174.65851784 C32.92257541 178.72760215 32.9547739 182.79647075 32.97021484 186.86572266 C32.98539551 190.79525225 33.01986511 194.7241887 33.06752777 198.65345383 C33.08232721 200.15004689 33.09025895 201.64672465 33.0911026 203.14339066 C33.09347856 205.24548292 33.12060354 207.34594426 33.15332031 209.44775391 C33.16220276 210.64244293 33.17108521 211.83713196 33.18023682 213.06802368 C33.81224391 217.09044445 35.08663406 219.27049796 37.69921875 222.37109375 C40.68365765 223.71698775 43.85954743 223.52324866 47.11035156 223.57641602 C48.19117004 223.59636124 49.27198853 223.61630646 50.38555908 223.63685608 C52.12636749 223.66192482 52.12636749 223.66192482 53.90234375 223.6875 C55.6917337 223.71867165 55.6917337 223.71867165 57.51727295 223.75047302 C61.32786298 223.81585614 65.13852189 223.87480151 68.94921875 223.93359375 C71.53255921 223.97678964 74.1158927 224.02040427 76.69921875 224.06445312 C83.03247927 224.17152609 89.36580831 224.27331347 95.69921875 224.37109375 C95.69477753 223.19425018 95.6903363 222.01740662 95.6857605 220.80490112 C95.64520587 209.71080854 95.6152302 198.61673101 95.59559441 187.5225811 C95.58516009 181.81905908 95.57100717 176.11559694 95.54833984 170.41210938 C95.52659912 164.90728289 95.51464748 159.40251397 95.50946426 153.89764786 C95.50577073 151.79811827 95.49855822 149.69859182 95.48775864 147.59908676 C95.47322753 144.6569718 95.47124151 141.71509433 95.47216797 138.77294922 C95.46497742 137.90620071 95.45778687 137.03945221 95.45037842 136.1464386 C95.46602015 131.55180843 95.60443935 127.56592113 97.69921875 123.37109375 C101.46999921 120.20153401 104.64529088 119.99258625 109.47045898 119.98291016 C110.13145096 119.9776532 110.79244293 119.97239624 111.47346497 119.96697998 C113.65182394 119.95381531 115.82944643 119.96251404 118.0078125 119.97265625 C119.53654621 119.97063233 121.06527897 119.96771824 122.5940094 119.96395874 C125.80096615 119.95953835 129.00767208 119.96594904 132.21459961 119.97998047 C136.2858871 119.99694206 140.35657547 119.98731321 144.42784023 119.96926308 C147.58956729 119.95830529 150.75115779 119.96192798 153.91288948 119.96964645 C155.41129696 119.97162238 156.90971759 119.96928295 158.40810966 119.96220779 C178.63961877 119.88773118 196.86116911 124.25631451 211.91796875 138.46484375 C219.96289844 147.00484604 225.32301804 157.19524417 228.69921875 168.37109375 C229.1478125 169.70720703 229.1478125 169.70720703 229.60546875 171.0703125 C236.06605584 193.47299642 231.6729831 216.64220515 220.71240234 236.64892578 C219.71519174 238.34394352 218.6017486 239.96882414 217.48828125 241.58984375 C215.56257793 244.58351355 214.9896171 246.74864446 215.19140625 250.3203125 C215.98188628 253.51263569 217.77860099 255.5492675 219.84765625 258.0546875 C230.35909777 271.20507742 234.84721373 284.87966467 234.8671875 301.484375 C234.8705159 302.45336227 234.8738443 303.42234955 234.87727356 304.42070007 C234.88232255 306.46560188 234.88468251 308.51051188 234.88452148 310.55541992 C234.8867041 313.66273779 234.90487094 316.76969814 234.92382812 319.87695312 C234.92676335 321.87109255 234.92874728 323.86523364 234.9296875 325.859375 C234.93687302 326.77842117 234.94405853 327.69746735 234.95146179 328.6443634 C234.88936484 346.42370687 227.05737047 361.28166827 215.00390625 374.0859375 C201.06032819 387.91134964 182.92117545 391.55336037 163.87109375 391.50390625 C163.05145142 391.50536148 162.23180908 391.50681671 161.3873291 391.50831604 C158.74124443 391.51054575 156.09529042 391.50431601 153.44921875 391.49609375 C152.54602905 391.49421051 151.64283936 391.49232727 150.71228027 391.49038696 C138.78958741 391.46125385 126.86806158 391.37289943 114.94921875 391.05859375 C113.76811523 391.03619629 112.58701172 391.01379883 111.37011719 390.99072266 C110.28762695 390.9551123 109.20513672 390.91950195 108.08984375 390.8828125 C107.16204102 390.85662842 106.23423828 390.83044434 105.27832031 390.8034668 C102.12815369 390.27535764 100.24854387 389.28526371 97.69921875 387.37109375 C95.82130866 384.36300431 95.45096406 382.07872425 95.45870972 378.56219482 C95.45596039 377.5974826 95.45321106 376.63277039 95.45037842 375.63882446 C95.46116425 374.06141983 95.46116425 374.06141983 95.47216797 372.45214844 C95.47187592 371.33965729 95.47158386 370.22716614 95.47128296 369.08096313 C95.47267698 365.4015525 95.48824182 361.72234404 95.50390625 358.04296875 C95.50763612 355.49277863 95.51048321 352.94258708 95.51248169 350.39239502 C95.51933934 344.36469004 95.5351044 338.33707192 95.55518067 332.30940175 C95.57754348 325.44608827 95.58853406 318.5827713 95.59857154 311.71943045 C95.61947077 297.60327801 95.65464436 283.48718986 95.69921875 269.37109375 C94.43245804 269.37775558 93.16569733 269.38441742 91.86054993 269.39128113 C79.92734069 269.45207443 67.99416284 269.49705791 56.06083393 269.52653027 C49.92566287 269.54219161 43.79061674 269.56343875 37.65551758 269.59741211 C31.73572243 269.62998838 25.81604752 269.64794323 19.89616966 269.65572548 C17.63671157 269.66127207 15.37726012 269.67210306 13.11785316 269.68828392 C9.95513266 269.71003478 6.79291012 269.7130616 3.63012695 269.71166992 C2.22642853 269.72784866 2.22642853 269.72784866 0.79437256 269.74435425 C-4.01077676 269.72144821 -7.49437162 269.65410214 -11.30078125 266.37109375 C-13.14810767 263.36446326 -13.53700856 261.17058421 -13.47158813 257.66744995 C-13.45962906 256.72560349 -13.44766998 255.78375702 -13.43534851 254.81336975 C-13.41237198 253.78682785 -13.38939545 252.76028595 -13.36572266 251.70263672 C-13.33327538 249.45035296 -13.30119847 247.19806384 -13.2694397 244.94577026 C-13.23922163 243.15432398 -13.23922163 243.15432398 -13.2083931 241.32668686 C-13.11287028 234.99806786 -13.08683792 228.66903212 -13.05078125 222.33984375 C-13.00306036 214.28684881 -12.93593658 206.23620098 -12.77636719 198.18457031 C-12.64762182 191.67622287 -12.60349874 185.17030833 -12.6084404 178.66067886 C-12.59611144 176.18456575 -12.55528994 173.7084195 -12.48503494 171.23327255 C-11.58002593 158.6298165 -11.58002593 158.6298165 -15.93749237 147.33304596 C-20.25559257 143.61254417 -25.03150682 141.43671915 -30.30078125 139.37109375 C-31.30078125 138.37109375 -31.30078125 138.37109375 -31.92578125 135.18359375 C-31.30078125 131.37109375 -31.30078125 131.37109375 -29.5390625 129.71484375 C-27.17992183 128.14475353 -24.78268606 126.73811116 -22.30078125 125.37109375 C-21.61242188 124.95472656 -20.9240625 124.53835937 -20.21484375 124.109375 C-15.66064967 121.37109375 -15.66064967 121.37109375 -13.30078125 121.37109375 C-13.30354663 120.78817723 -13.30631201 120.20526072 -13.30916119 119.60468006 C-13.37543589 105.41611688 -13.42506904 91.22757693 -13.45621777 77.03889179 C-13.47168174 70.17731986 -13.49276216 63.31585129 -13.52709961 56.4543457 C-13.56021285 49.83430906 -13.57762807 43.21435169 -13.58541298 36.59422874 C-13.59096184 34.06682837 -13.6017972 31.53943395 -13.61797142 29.01207924 C-13.63970526 25.47577772 -13.6427498 21.93992187 -13.64135742 18.40356445 C-13.65214325 17.35555664 -13.66292908 16.30754883 -13.67404175 15.2277832 C-13.63569608 6.24492363 -13.63569608 6.24492363 -10.30078125 2.37109375 C-6.73595084 -0.00545986 -4.12287035 0.03215826 0 0 Z " fill="#FDDC58" transform="translate(41.30078125,22.62890625)"/>
<path d="M0 0 C0.76947968 -0.0049649 1.53895935 -0.00992981 2.33175659 -0.01504517 C4.87905776 -0.02965696 7.42629661 -0.03646789 9.97363281 -0.04199219 C11.74619549 -0.04774538 13.51875815 -0.05350309 15.2913208 -0.05926514 C19.01029754 -0.06977297 22.72925269 -0.07561675 26.44824219 -0.07910156 C31.20400733 -0.08457939 35.95948518 -0.10859304 40.71516037 -0.13707352 C44.37840598 -0.15573831 48.041583 -0.16090759 51.70487213 -0.16243744 C53.45748715 -0.1654569 55.21010117 -0.17346149 56.96266937 -0.18662262 C59.4206446 -0.20376026 61.87792606 -0.20178406 64.3359375 -0.1953125 C65.41320602 -0.20913467 65.41320602 -0.20913467 66.51223755 -0.22323608 C72.78957984 -0.17170531 77.27760275 1.3618402 82.11425781 5.41113281 C86.93728942 11.14662986 89.15992123 15.14202988 88.80566406 22.67285156 C87.77594642 29.43501792 84.41289336 33.69968616 79.20800781 37.93457031 C76.15710155 40.03541366 74.18502407 41.16113281 70.42675781 41.16113281 C68.97763696 57.11521208 68.97763696 57.11521208 72.55664062 72.07666016 C75.87319943 75.02432936 80.27376252 75.90400991 84.42675781 77.16113281 C105.6649795 90.45810639 121.71296408 112.72756183 127.42675781 137.16113281 C127.64976562 138.09699219 127.87277344 139.03285156 128.10253906 139.99707031 C133.25416778 165.57998841 127.38145827 192.32867624 113.42675781 214.16113281 C110.64789151 218.0555657 107.65314129 221.6315992 104.42675781 225.16113281 C103.67910156 226.00160156 102.93144531 226.84207031 102.16113281 227.70800781 C86.58884609 244.3115718 63.66506438 255.64129325 40.81715393 256.41938782 C37.35358867 256.50473962 33.89128886 256.53172984 30.42675781 256.53613281 C29.75240692 256.53821747 29.07805603 256.54030212 28.38327026 256.54244995 C1.68414591 256.53310593 -20.50857536 244.86121145 -39.32714844 226.46972656 C-49.17876691 216.13680764 -55.44428918 204.36135356 -60.57324219 191.16113281 C-61.05083984 189.96037109 -61.05083984 189.96037109 -61.53808594 188.73535156 C-69.94505675 165.85667975 -66.59521691 138.89147223 -56.57324219 117.16113281 C-51.2505944 106.33462921 -44.15508573 97.57068597 -35.57324219 89.16113281 C-34.78820312 88.38898438 -34.00316406 87.61683594 -33.19433594 86.82128906 C-25.52756128 79.6756905 -16.915488 74.83225572 -7.57324219 70.16113281 C-7.24324219 60.26113281 -6.91324219 50.36113281 -6.57324219 40.16113281 C-9.54324219 39.66613281 -9.54324219 39.66613281 -12.57324219 39.16113281 C-14.58496094 37.96191406 -14.58496094 37.96191406 -16.26074219 36.47363281 C-16.82148438 35.99539062 -17.38222656 35.51714844 -17.95996094 35.02441406 C-22.85970114 29.36539209 -23.21339926 23.79179484 -23.05371094 16.58300781 C-22.22944449 10.71262241 -19.41685972 7.48648912 -14.94433594 3.82910156 C-10.04893544 0.35692527 -5.80331208 0.00893226 0 0 Z " fill="#020200" transform="translate(364.5732421875,161.8388671875)"/>
<path d="M0 0 C1.75570313 0.04060547 1.75570313 0.04060547 3.546875 0.08203125 C4.43890625 0.11683594 5.3309375 0.15164063 6.25 0.1875 C6.641875 1.30125 7.03375 2.415 7.4375 3.5625 C10.78113208 12.29309486 13.64409607 19.58108488 22.25 24.1875 C29.52908143 27.08909246 37.62664168 27.57203511 45.171875 25.3125 C52.92332678 21.74213433 58.10521319 16.13222457 61.25 8.1875 C61.6313074 5.86152489 61.97460254 3.52837842 62.25 1.1875 C63.90635639 -0.46885639 65.86977069 0.0347789 68.14941406 0.01049805 C69.19429993 -0.00233719 70.23918579 -0.01517242 71.31573486 -0.02839661 C72.45419861 -0.03578354 73.59266235 -0.04317047 74.765625 -0.05078125 C75.92874207 -0.058853 77.09185913 -0.06692474 78.29022217 -0.07524109 C80.75840759 -0.089103 83.22661235 -0.09981567 85.69482422 -0.10766602 C89.47009704 -0.12486378 93.24449115 -0.1687309 97.01953125 -0.21289062 C99.41405604 -0.22301824 101.8085883 -0.23153413 104.203125 -0.23828125 C105.89867523 -0.26454338 105.89867523 -0.26454338 107.628479 -0.29133606 C115.48623032 -0.26959752 115.48623032 -0.26959752 119.453125 2.10449219 C124.35859384 7.79110362 122.70007586 18.02822875 122.25 25.1875 C119.7422067 43.31469883 110.79589858 59.1729946 97.01171875 71.12890625 C81.69448194 82.6361413 63.07422406 87.47537769 44.12792969 84.89892578 C26.466486 81.80006202 11.36810466 72.34176392 0.3515625 58.23046875 C-10.04798706 43.17238491 -14.73733325 26.36842313 -12.75 8.1875 C-11.93372218 5.1573778 -11.18924637 3.65193252 -9.046875 1.38671875 C-5.91952973 -0.24609587 -3.50544335 -0.1051633 0 0 Z " fill="#FDDC58" transform="translate(341.75,304.8125)"/>
<path d="M0 0 C0.76947968 -0.0049649 1.53895935 -0.00992981 2.33175659 -0.01504517 C4.87905776 -0.02965696 7.42629661 -0.03646789 9.97363281 -0.04199219 C11.74619549 -0.04774538 13.51875815 -0.05350309 15.2913208 -0.05926514 C19.01029754 -0.06977297 22.72925269 -0.07561675 26.44824219 -0.07910156 C31.20400733 -0.08457939 35.95948518 -0.10859304 40.71516037 -0.13707352 C44.37840598 -0.15573831 48.041583 -0.16090759 51.70487213 -0.16243744 C53.45748715 -0.1654569 55.21010117 -0.17346149 56.96266937 -0.18662262 C59.4206446 -0.20376026 61.87792606 -0.20178406 64.3359375 -0.1953125 C65.41320602 -0.20913467 65.41320602 -0.20913467 66.51223755 -0.22323608 C72.78957984 -0.17170531 77.27760275 1.3618402 82.11425781 5.41113281 C86.93728942 11.14662986 89.15992123 15.14202988 88.80566406 22.67285156 C87.77594642 29.43501792 84.41289336 33.69968616 79.20800781 37.93457031 C76.15710155 40.03541366 74.18502407 41.16113281 70.42675781 41.16113281 C68.97763696 57.11521208 68.97763696 57.11521208 72.55664062 72.07666016 C75.87319943 75.02432936 80.27376252 75.90400991 84.42675781 77.16113281 C105.6649795 90.45810639 121.71296408 112.72756183 127.42675781 137.16113281 C127.64976562 138.09699219 127.87277344 139.03285156 128.10253906 139.99707031 C133.25416778 165.57998841 127.38145827 192.32867624 113.42675781 214.16113281 C110.64789151 218.0555657 107.65314129 221.6315992 104.42675781 225.16113281 C103.67910156 226.00160156 102.93144531 226.84207031 102.16113281 227.70800781 C86.58884609 244.3115718 63.66506438 255.64129325 40.81715393 256.41938782 C37.35358867 256.50473962 33.89128886 256.53172984 30.42675781 256.53613281 C29.75240692 256.53821747 29.07805603 256.54030212 28.38327026 256.54244995 C1.68414591 256.53310593 -20.50857536 244.86121145 -39.32714844 226.46972656 C-49.17876691 216.13680764 -55.44428918 204.36135356 -60.57324219 191.16113281 C-61.05083984 189.96037109 -61.05083984 189.96037109 -61.53808594 188.73535156 C-69.94505675 165.85667975 -66.59521691 138.89147223 -56.57324219 117.16113281 C-51.2505944 106.33462921 -44.15508573 97.57068597 -35.57324219 89.16113281 C-34.78820312 88.38898438 -34.00316406 87.61683594 -33.19433594 86.82128906 C-25.52756128 79.6756905 -16.915488 74.83225572 -7.57324219 70.16113281 C-7.24324219 60.26113281 -6.91324219 50.36113281 -6.57324219 40.16113281 C-9.54324219 39.66613281 -9.54324219 39.66613281 -12.57324219 39.16113281 C-14.58496094 37.96191406 -14.58496094 37.96191406 -16.26074219 36.47363281 C-16.82148438 35.99539062 -17.38222656 35.51714844 -17.95996094 35.02441406 C-22.85970114 29.36539209 -23.21339926 23.79179484 -23.05371094 16.58300781 C-22.22944449 10.71262241 -19.41685972 7.48648912 -14.94433594 3.82910156 C-10.04893544 0.35692527 -5.80331208 0.00893226 0 0 Z M-11.57324219 16.16113281 C-12.53242275 19.29052639 -12.3732474 21.99564455 -11.57324219 25.16113281 C-7.58831878 29.74379473 -3.24307626 31.23915516 2.42675781 33.16113281 C4.5647448 35.2991198 3.59098809 40.15818791 3.59472656 43.12207031 C3.59971916 44.47433212 3.59971916 44.47433212 3.60481262 45.85391235 C3.60988629 47.76555876 3.61222081 49.67721406 3.61206055 51.58886719 C3.61424336 54.51675015 3.63238421 57.44425428 3.65136719 60.37207031 C3.65430172 62.22623569 3.65628612 64.08040286 3.65722656 65.93457031 C3.66441208 66.81277435 3.6715976 67.69097839 3.67900085 68.59579468 C3.67592422 69.41319122 3.6728476 70.23058777 3.66967773 71.07275391 C3.67110275 71.79143646 3.67252777 72.51011902 3.67399597 73.25057983 C3.42675781 75.16113281 3.42675781 75.16113281 1.42675781 78.16113281 C-1.01611396 79.44961649 -3.44298077 80.63394346 -5.94824219 81.78613281 C-28.7898559 92.76570454 -43.48878552 111.31207819 -51.89355469 134.86035156 C-58.59816937 157.67010711 -54.76567051 181.07155966 -43.55371094 201.69628906 C-41.08412469 206.01684724 -38.5694075 210.18561153 -35.57324219 214.16113281 C-34.92162109 215.04091797 -34.92162109 215.04091797 -34.25683594 215.93847656 C-20.43200808 233.30813207 1.78416797 243.17732851 23.34960938 245.92529297 C46.22276818 248.52231594 68.01431219 240.80148507 86.09472656 227.02050781 C87.24908203 226.10011719 87.24908203 226.10011719 88.42675781 225.16113281 C89.25949219 224.52949219 90.09222656 223.89785156 90.95019531 223.24707031 C106.09408882 210.49180354 116.27460892 188.61324779 118.42675781 169.16113281 C119.93763743 143.66652635 113.201016 120.81987265 96.48339844 101.3737793 C87.91754087 91.83189053 78.14585091 85.11273395 66.59399414 79.72265625 C61.51924252 77.34610222 61.51924252 77.34610222 60.42675781 75.16113281 C60.3030542 72.13395547 60.23830562 69.13071706 60.22363281 66.10253906 C60.21793274 65.20244614 60.21223267 64.30235321 60.20635986 63.37498474 C60.19690581 61.46932147 60.19037427 59.56364182 60.18652344 57.65795898 C60.17680831 54.73880631 60.14578514 51.8203548 60.11425781 48.90136719 C60.10772879 47.051762 60.10247792 45.20215177 60.09863281 43.35253906 C60.08628601 42.47747208 60.07393921 41.60240509 60.06121826 40.70082092 C60.06421936 39.88665207 60.06722046 39.07248322 60.0703125 38.23364258 C60.06484406 37.16014305 60.06484406 37.16014305 60.05926514 36.06495667 C60.537881 33.58545067 61.46839416 32.70807692 63.42675781 31.16113281 C65.96041626 30.49438059 68.45978534 30.15641459 71.05175781 29.78613281 C73.78158296 29.06775777 74.77423291 28.43011685 76.42675781 26.16113281 C77.36243251 23.16921491 77.62419374 20.28720159 77.42675781 17.16113281 C75.66172467 14.23969864 74.46828147 12.68189464 71.42675781 11.16113281 C68.98199955 11.04236914 66.56479778 10.98284837 64.11889648 10.96826172 C63.36585739 10.96008423 62.6128183 10.95190674 61.83695984 10.94348145 C59.33955686 10.91862551 56.84221073 10.90211103 54.34472656 10.88769531 C53.4922616 10.88237164 52.63979664 10.87704796 51.7614994 10.87156296 C47.24945601 10.84483054 42.7374403 10.82545593 38.2253418 10.81103516 C33.56443702 10.79438653 28.90423923 10.74960776 24.2436018 10.69866371 C20.66021409 10.66501064 17.07699461 10.65345991 13.49346352 10.64780807 C11.77544056 10.64109022 10.05742888 10.62585417 8.33955956 10.60191727 C5.93338763 10.5703025 3.52912776 10.57022246 1.12280273 10.57763672 C0.4145636 10.56123138 -0.29367554 10.54482605 -1.02337646 10.52792358 C-6.22534856 10.59345949 -8.39025549 12.1395985 -11.57324219 16.16113281 Z " fill="#FAD957" transform="translate(364.5732421875,161.8388671875)"/>
<path d="M0 0 C0.6909375 -0.020625 1.381875 -0.04125 2.09375 -0.0625 C10.47614309 -0.12552551 17.21868335 3.61147918 23.25 9.25 C28.73415791 16.18829068 30.86280828 23.19933322 30.6875 32.01953125 C29.54673958 40.44282468 25.05637048 47.68562636 18.3671875 52.84765625 C10.62501286 57.97577561 3.57237801 59.66412969 -5.75 58.25 C-14.7333377 55.2950966 -20.84620372 50.45675524 -25.8359375 42.5234375 C-29.23112143 35.45273335 -29.24424822 24.75119217 -26.80078125 17.390625 C-21.06411552 6.60496955 -12.10208034 0.08833635 0 0 Z " fill="#FCDB58" transform="translate(352.75,3.75)"/>
<path d="M0 0 C4.31756101 2.01923956 7.4958322 4.64591647 10.6171875 8.2734375 C11.04902344 8.76457031 11.48085937 9.25570313 11.92578125 9.76171875 C19.17629403 18.77645125 19.47011457 30.17370169 18.6171875 41.2734375 C17.17321998 50.65362961 14.38124697 60.68861761 6.6796875 66.7734375 C1.34963935 70.53839965 -3.99168934 71.57821309 -10.4453125 71.6484375 C-11.63253906 71.67679687 -12.81976563 71.70515625 -14.04296875 71.734375 C-17.98195359 71.19074902 -19.58362683 70.03667033 -22.3828125 67.2734375 C-23.6735681 64.69192629 -23.53107081 62.8000112 -23.55981445 59.90917969 C-23.57264969 58.78751404 -23.58548492 57.66584839 -23.59870911 56.51019287 C-23.60609604 55.29253235 -23.61348297 54.07487183 -23.62109375 52.8203125 C-23.6291655 51.57219788 -23.63723724 50.32408325 -23.64555359 49.03814697 C-23.65940547 46.39176716 -23.6704182 43.74551238 -23.67797852 41.09912109 C-23.68902323 37.71852661 -23.72339912 34.33859398 -23.76315022 30.95823288 C-23.79567735 27.72482529 -23.80010112 24.49135875 -23.80859375 21.2578125 C-23.82610184 20.0482489 -23.84360992 18.8386853 -23.86164856 17.59246826 C-23.84517934 11.20717424 -23.79995915 7.06807897 -19.3828125 2.2734375 C-13.78598503 -2.05929473 -6.63476638 -2.02305991 0 0 Z " fill="#010100" transform="translate(209.3828125,295.7265625)"/>
<path d="M0 0 C6.24471671 3.68015133 10.50429112 8.69790267 12.6875 15.625 C15.37147447 27.88012871 14.12826529 39.25453621 8.75 50.5 C5.06255494 55.47626081 -0.30450615 58.07825147 -6.25 59.5 C-10.52486977 60.01593256 -12.59196723 59.83546769 -16.4375 57.875 C-21.42462755 53.66364785 -24.13905542 48.90144645 -25.25 42.5 C-25.53938531 37.87243216 -25.52900022 33.26020169 -25.5 28.625 C-25.50773438 27.39652344 -25.51546875 26.16804688 -25.5234375 24.90234375 C-25.48711198 7.95648709 -25.48711198 7.95648709 -20.8125 2 C-15.53206444 -3.15164445 -6.56345209 -2.91566267 0 0 Z " fill="#020200" transform="translate(210.25,190.5)"/>
<path d="M0 0 C6.58409133 3.72959604 11.43510465 8.45398068 13.625 15.8125 C14.54996283 24.12688812 14.12283741 30.97698833 9.11328125 37.90234375 C4.51328752 43.61874045 0.22317949 46.34364631 -7.2421875 47.31640625 C-8.57753449 47.36066553 -9.91392789 47.3796682 -11.25 47.375 C-11.94963867 47.37330811 -12.64927734 47.37161621 -13.37011719 47.36987305 C-19.78799058 47.14746413 -23.835911 45.23680744 -28.375 40.8125 C-34.52399367 34.03284031 -35.70584643 28.46864382 -35.5859375 19.5234375 C-35.05469019 12.69592577 -31.38420074 7.26160024 -26.375 2.8125 C-17.97308689 -3.03935878 -9.38298334 -4.38522218 0 0 Z " fill="#FCDB58" transform="translate(376.375,89.1875)"/>
<path d="M0 0 C6.00694127 4.45392719 10.79748434 10.37689446 12.0546875 17.8984375 C12.36291461 25.75822868 10.00322008 31.41346665 5.8515625 37.9375 C1.23957202 42.54949048 -3.77746224 45.78213417 -10.3984375 46.1875 C-11.08808594 46.249375 -11.77773438 46.31125 -12.48828125 46.375 C-19.72407005 46.77080383 -24.29195174 44.30555847 -30.1484375 40.3125 C-34.97246922 35.75647004 -37.14843421 31.5154126 -37.63671875 25.015625 C-37.82801142 15.79330472 -37.04011212 10.28438395 -30.8984375 3.375 C-22.48816333 -3.9839899 -10.06220586 -6.1657772 0 0 Z " fill="#FCDB58" transform="translate(427.3984375,49.8125)"/>
<path d="M0 0 C5.08772739 2.95483554 7.67159597 6.81457737 9.5625 12.3125 C10.41803459 18.27656327 10.5791982 23.71902136 7.0625 28.8125 C2.26335255 34.18217547 -2.70216637 36.47667549 -9.875 36.9375 C-16.72120976 36.66174988 -21.26705738 33.68002419 -25.8828125 28.77734375 C-29.49905498 23.63115253 -29.45954516 17.319941 -28.4375 11.3125 C-26.21766915 6.02569437 -22.73458106 1.42290728 -17.484375 -1.09765625 C-11.59129442 -2.79585314 -5.58377926 -2.55228716 0 0 Z " fill="#FCDB57" transform="translate(461.4375,12.6875)"/>
<path d="M0 0 C5.4240016 2.81468235 10.06565613 7.53290588 12.00390625 13.34765625 C13.08137191 20.01703232 11.48209254 24.60861838 7.76171875 30.171875 C4.43602175 34.28834884 1.60836837 35.98603226 -3.640625 36.71484375 C-9.99737825 37.01050669 -13.92748942 36.19979554 -18.99609375 32.34765625 C-24.68311322 26.5421572 -25.3477645 22.53864029 -25.27734375 14.5546875 C-24.80011162 9.11291561 -22.41190697 6.62188815 -18.49609375 3.09765625 C-12.71976773 -0.94577196 -6.90389033 -2.25626162 0 0 Z " fill="#FBDA57" transform="translate(415.99609375,121.65234375)"/>
<path d="M0 0 C3.35570098 2.43288321 5.64707145 5.10664291 7.5 8.8125 C7.9914074 14.64494197 8.33075678 19.99122553 5.875 25.375 C1.0604696 30.31622857 -2.04161632 32.0750125 -9 32.3125 C-15.95838368 32.0750125 -19.0604696 30.31622857 -23.875 25.375 C-26.36557913 19.91488421 -26.23667051 14.71338116 -25.5 8.8125 C-20.64284056 -1.835888 -10.37991591 -3.52175718 0 0 Z " fill="#FCDB57" transform="translate(399.5,185.1875)"/>
<path d="M0 0 C4.52508655 1.95046834 8.53120426 4.64330163 11 9 C12.70939041 14.12817123 13.21261484 20.09390581 11.09375 25.171875 C8.44040088 29.15189868 5.61745076 31.51893089 1 33 C-5.02813294 33.69820137 -9.82473038 33.45017975 -15 30 C-18.83653447 26.80288794 -20.6479886 23.88009326 -21.2578125 18.890625 C-21.53479311 13.38794356 -20.70683718 10.29212726 -17 6 C-11.51258797 0.83455347 -7.53584757 -1.07997815 0 0 Z " fill="#FBDA57" transform="translate(381,288)"/>
<path d="M0 0 C3.87987121 2.16971439 5.96960968 4.22849679 7.8125 8.375 C8.65466056 14.31852394 8.29747828 19.32779008 4.8125 24.375 C-0.11223315 28.81927138 -3.14144683 29.73672836 -9.6484375 29.65234375 C-14.7838584 29.09139777 -17.3820391 26.37638382 -20.5 22.5 C-23.17009696 17.55537599 -23.62087034 14.19051004 -22.125 8.8125 C-20.42270621 4.16060959 -18.27919814 2.10279876 -14.1875 -0.625 C-9.11211603 -2.31679466 -4.86785564 -2.18871867 0 0 Z " fill="#FADA57" transform="translate(426.1875,268.625)"/>
<path d="M0 0 C3.04983368 2.52700505 5.41209283 5.26168566 7.1875 8.8125 C7.59081428 14.05558569 7.04801133 17.37377553 4.1875 21.8125 C0.51047423 25.21374883 -2.09872563 26.65082317 -7.125 27.125 C-12.76430622 26.64709269 -15.51298967 24.28299853 -19.1875 20.125 C-21.2871637 15.8449163 -21.64331358 12.49526744 -20.8125 7.8125 C-16.51720531 -0.77808939 -8.89522512 -3.75576172 0 0 Z " fill="#FADA57" transform="translate(453.8125,94.1875)"/>
<path d="M0 0 C3.91075925 1.98968453 5.57689098 3.36533646 8 7 C8.63778488 11.65247288 9.08595557 16.72857899 7.01953125 21.05078125 C4.17370142 24.57961024 1.08723998 26.67279241 -3.3671875 27.37109375 C-7.77415201 27.48778907 -10.98317892 27.56332413 -14.5 24.6875 C-18.91186043 19.94475004 -19.54443504 17.10040199 -19.4609375 10.8046875 C-18.73415663 6.38241069 -16.39213018 3.79455284 -13 1 C-9.05570181 -0.9721491 -4.29883571 -0.44867961 0 0 Z " fill="#FCDB57" transform="translate(332,69)"/>
<path d="M0 0 C1.91541138 -0.10841951 3.83259773 -0.18578079 5.75 -0.25 C7.35101563 -0.31960938 7.35101563 -0.31960938 8.984375 -0.390625 C12 0 12 0 14.37890625 1.6015625 C16.53228878 4.78753087 16.37230957 6.81706327 16.1875 10.625 C15.81679651 14.97186515 15.81679651 14.97186515 17 19 C17.41409424 23.12501571 17.63921241 26.78245255 15.6875 30.5 C11.41344923 34.29915624 5.33532557 33.06276854 0 33 C0 28.05 0 23.1 0 18 C-0.66 18 -1.32 18 -2 18 C-1.505 16.515 -1.505 16.515 -1 15 C-0.77281504 12.43365139 -0.58391816 9.88321893 -0.4375 7.3125 C-0.39431641 6.61060547 -0.35113281 5.90871094 -0.30664062 5.18554688 C-0.2008264 3.45724794 -0.09993419 1.7286489 0 0 Z " fill="#F6D656" transform="translate(303,449)"/>
<path d="M0 0 C3.21110532 2.09419912 4.71146126 3.65776051 5.52734375 7.453125 C7.3511949 24.54236044 7.3511949 24.54236044 2.875 31.125 C-0.7719183 33.50342498 -2.72282375 33.69990157 -7 33 C-9.93127156 30.68583825 -11.74084611 28.68610002 -12.31640625 24.94140625 C-12.39761719 24.15636719 -12.47882813 23.37132812 -12.5625 22.5625 C-12.64628906 21.78003906 -12.73007812 20.99757813 -12.81640625 20.19140625 C-13.34973044 13.82555789 -13.53462864 7.25680682 -9.875 1.875 C-6.19119939 -0.52747866 -4.32056721 -0.77152986 0 0 Z " fill="#EFD053" transform="translate(347,449)"/>
<path d="M0 0 C3.36838724 0.0612434 5.32927236 0.13755162 8.375 1.625 C10.51508961 6.00708826 9.98457731 10.52625444 9.6875 15.3125 C10.3475 15.3125 11.0075 15.3125 11.6875 15.3125 C11.6875 16.3025 11.6875 17.2925 11.6875 18.3125 C11.0275 18.3125 10.3675 18.3125 9.6875 18.3125 C9.73390625 19.06015625 9.7803125 19.8078125 9.828125 20.578125 C10.11607143 28.43494898 10.11607143 28.43494898 8.375 32 C4.02240501 34.12568592 -0.55488794 33.79219312 -5.3125 33.3125 C-7.23053427 31.39446573 -6.70981888 28.00174024 -6.875 25.4375 C-6.95878906 24.18195313 -7.04257813 22.92640625 -7.12890625 21.6328125 C-7.37940589 17.10249981 -7.17696849 12.71238166 -6.875 8.1875 C-6.79378906 6.92679687 -6.71257812 5.66609375 -6.62890625 4.3671875 C-6.11881139 -0.55743205 -4.5760315 0.11515841 0 0 Z " fill="#F2D354" transform="translate(219.3125,448.6875)"/>
<path d="M0 0 C2.4375 1.3125 2.4375 1.3125 4 4 C4.45641964 6.82304002 4.68858052 9.58525261 4.82421875 12.44140625 C4.90095653 15.12030403 4.90095653 15.12030403 6 18 C5.34 18 4.68 18 4 18 C4.05800781 18.66386719 4.11601562 19.32773437 4.17578125 20.01171875 C4.41096251 24.61455199 4.53393849 27.19100229 1.9375 31.125 C-1.76596042 33.48891091 -3.68517943 33.78451283 -8 33 C-10.4375 31.125 -10.4375 31.125 -12 28 C-12.31312942 24.63770865 -12.23524842 21.36535935 -12 18 C-12.66 18 -13.32 18 -14 18 C-13.505 16.515 -13.505 16.515 -13 15 C-12.87556494 13.18877863 -12.77362028 11.37594706 -12.6875 9.5625 C-12.38147177 6.16018611 -12.16937205 4.29131992 -10.4375 1.3125 C-6.90084204 -0.59185428 -3.92400499 -0.74934798 0 0 Z " fill="#F1D254" transform="translate(259,449)"/>
<path d="M0 0 C2.86970305 2.20746388 3.80944873 3.89197967 4.421875 7.453125 C4.59524897 9.19706318 4.7311304 10.94525151 4.82421875 12.6953125 C4.91826154 15.16005847 4.91826154 15.16005847 6 18 C5.34 18 4.68 18 4 18 C4.05800781 18.66386719 4.11601563 19.32773437 4.17578125 20.01171875 C4.41096251 24.61455199 4.53393849 27.19100229 1.9375 31.125 C-1.74894297 33.4780487 -3.70135466 33.70341469 -8 33 C-10.4375 31.6875 -10.4375 31.6875 -12 29 C-12.32396453 25.30892873 -12.22932784 21.69472631 -12 18 C-12.66 18 -13.32 18 -14 18 C-13.505 16.515 -13.505 16.515 -13 15 C-12.87556494 13.18877863 -12.77362028 11.37594706 -12.6875 9.5625 C-12.38147177 6.16018611 -12.16937205 4.29131992 -10.4375 1.3125 C-6.90858989 -0.58768237 -3.91128834 -0.89148461 0 0 Z " fill="#F7D756" transform="translate(93,449)"/>
<path d="M0 0 C3.16526612 1.68116275 5.37288349 3.74576697 7 7 C7.58118751 11.76383201 7.45088085 15.14488114 5.1875 19.4375 C2.90277746 22.11388926 1.2738156 23.7917169 -2.26953125 24.37109375 C-6.75791286 24.48830187 -9.98845813 24.56577717 -13.5625 21.625 C-17.45135671 17.43700047 -17.47872997 14.36466744 -17.390625 8.77734375 C-16.87486476 5.11028847 -15.896171 3.30010765 -13.04296875 0.96875 C-8.79960838 -1.04339794 -4.5322482 -0.92124333 0 0 Z " fill="#FAD957" transform="translate(413,231)"/>
<path d="M0 0 C1.98 0 3.96 0 6 0 C6.67220351 1.93558599 7.33758077 3.87354372 8 5.8125 C8.556875 7.43091797 8.556875 7.43091797 9.125 9.08203125 C10 12 10 12 10 15 C10.66 15 11.32 15 12 15 C12 10.05 12 5.1 12 0 C13.65 0 15.3 0 17 0 C17 4.95 17 9.9 17 15 C17.66 15 18.32 15 19 15 C19 15.99 19 16.98 19 18 C18.34 18 17.68 18 17 18 C17 22.95 17 27.9 17 33 C15.02 33 13.04 33 11 33 C10.32779649 31.06441401 9.66241923 29.12645628 9 27.1875 C8.62875 26.10855469 8.2575 25.02960938 7.875 23.91796875 C7 21 7 21 7 18 C6.34 18 5.68 18 5 18 C5 22.95 5 27.9 5 33 C3.35 33 1.7 33 0 33 C-1.91803427 31.08196573 -1.39731888 27.68924024 -1.5625 25.125 C-1.64628906 23.86945313 -1.73007813 22.61390625 -1.81640625 21.3203125 C-1.93276967 19.21586766 -2 17.10765949 -2 15 C-1.34 15 -0.68 15 0 15 C0 10.05 0 5.1 0 0 Z " fill="#F6D655" transform="translate(115,449)"/>
<path d="M0 0 C0.96550781 -0.03738281 1.93101562 -0.07476562 2.92578125 -0.11328125 C5.6875 0.3125 5.6875 0.3125 8.0234375 1.9296875 C10.20234964 5.04972601 10.12654612 6.97543457 10 10.75 C9.97550781 11.86246094 9.95101563 12.97492188 9.92578125 14.12109375 C9.6875 17.3125 9.6875 17.3125 9.109375 19.859375 C8.59326791 22.86044214 9.01583724 25.15085239 9.625 28.125 C9.91697266 29.58873047 9.91697266 29.58873047 10.21484375 31.08203125 C10.37082031 31.81808594 10.52679688 32.55414063 10.6875 33.3125 C8.7075 33.3125 6.7275 33.3125 4.6875 33.3125 C4.49414062 32.53003906 4.30078125 31.74757813 4.1015625 30.94140625 C3.84117187 29.92949219 3.58078125 28.91757812 3.3125 27.875 C3.05726563 26.86566406 2.80203125 25.85632813 2.5390625 24.81640625 C1.96176046 22.15679676 1.96176046 22.15679676 -0.3125 21.3125 C-0.3125 25.2725 -0.3125 29.2325 -0.3125 33.3125 C-2.2925 33.3125 -4.2725 33.3125 -6.3125 33.3125 C-6.48039126 30.87507869 -6.64686133 28.43757454 -6.8125 26 C-6.86019531 25.30970703 -6.90789062 24.61941406 -6.95703125 23.90820312 C-7.31634157 18.59554333 -7.22947898 13.4992312 -6.875 8.1875 C-6.79378906 6.92679687 -6.71257812 5.66609375 -6.62890625 4.3671875 C-6.11881139 -0.55743205 -4.5760315 0.11515841 0 0 Z " fill="#F2D354" transform="translate(375.3125,448.6875)"/>
<path d="M0 0 C10.59145274 -0.55528005 10.59145274 -0.55528005 15 3 C16 4 16 4 16.1328125 6.51171875 C16.11091725 15.41213858 16.11091725 15.41213858 15.375 19.3125 C14.87265703 22.91262463 15.91853832 25.56476879 17 29 C17 30.32 17 31.64 17 33 C15.02 33 13.04 33 11 33 C10.80664062 32.21753906 10.61328125 31.43507813 10.4140625 30.62890625 C10.15367187 29.61699219 9.89328125 28.60507812 9.625 27.5625 C9.36976563 26.55316406 9.11453125 25.54382813 8.8515625 24.50390625 C8.27426046 21.84429676 8.27426046 21.84429676 6 21 C6 24.96 6 28.92 6 33 C4.02 33 2.04 33 0 33 C0 28.05 0 23.1 0 18 C-0.66 18 -1.32 18 -2 18 C-1.505 16.515 -1.505 16.515 -1 15 C-0.77281504 12.43365139 -0.58391816 9.88321893 -0.4375 7.3125 C-0.39431641 6.61060547 -0.35113281 5.90871094 -0.30664062 5.18554688 C-0.2008264 3.45724794 -0.09993419 1.7286489 0 0 Z " fill="#F2D354" transform="translate(181,449)"/>
<path d="M0 0 C9.24 0 18.48 0 28 0 C28 7.90119927 27.80178475 10.56555417 23.0625 16.375 C18.19041718 18.9601868 13.38801606 18.86033274 8 18 C4.30039415 16.14666017 2.2838281 13.42574215 0 10 C0 6.7 0 3.4 0 0 Z " fill="#FAD957" transform="translate(411,0)"/>
<path d="M0 0 C2.31 0 4.62 0 7 0 C8.53269818 4.26965921 9.60926157 8.51869792 10.53515625 12.94921875 C11.00568085 15.18152492 11.00568085 15.18152492 12 18 C12.07029121 20.57265818 12.09370832 23.11641431 12.0625 25.6875 C12.05798828 26.38939453 12.05347656 27.09128906 12.04882812 27.81445312 C12.03706927 29.54300538 12.01913454 31.27151365 12 33 C10.35 33 8.7 33 7 33 C6.67 30.69 6.34 28.38 6 26 C4.35 26 2.7 26 1 26 C1.020625 26.969375 1.04125 27.93875 1.0625 28.9375 C1 32 1 32 0 33 C-1.66617115 33.04063832 -3.33388095 33.042721 -5 33 C-5.09031868 27.85183542 -4.8004162 23.1026533 -4 18 C-4 17.01 -4 16.02 -4 15 C-3.33333333 13 -2.66666667 11 -2 9 C-1.27729902 6.01153379 -0.62865788 3.00953239 0 0 Z " fill="#EDCE52" transform="translate(154,449)"/>
<path d="M0 0 C2.875 1.5 2.875 1.5 5 4 C5.42242213 6.80188855 5.23816991 9.1419611 5 12 C3.35 12 1.7 12 0 12 C-0.33 10.35 -0.66 8.7 -1 7 C-1.99 7 -2.98 7 -4 7 C-4 13.27 -4 19.54 -4 26 C-3.01 26 -2.02 26 -1 26 C-0.67 24.02 -0.34 22.04 0 20 C-0.99 19.67 -1.98 19.34 -3 19 C-3 17.35 -3 15.7 -3 14 C-0.36 14 2.28 14 5 14 C5.10826289 16.4178712 5.18739789 18.83087556 5.25 21.25 C5.30027344 22.27287109 5.30027344 22.27287109 5.3515625 23.31640625 C5.41842821 26.75999054 5.26431417 28.64050979 3.19921875 31.44921875 C-0.05210194 33.74189071 -2.11741832 33.61303921 -6 33 C-8.875 31.3125 -8.875 31.3125 -11 28 C-12.55785295 19.94027465 -13.4369298 9.28383357 -9 2 C-5.48746854 -0.34168764 -4.13530644 -0.49623677 0 0 Z " fill="#EECF53" transform="translate(412,449)"/>
<path d="M0 0 C4.62 0 9.24 0 14 0 C14.33 1.65 14.66 3.3 15 5 C14 6 14 6 12.15234375 6.09765625 C10.1015625 6.06510417 8.05078125 6.03255208 6 6 C6 8.64 6 11.28 6 14 C7.98 14 9.96 14 12 14 C12 15.65 12 17.3 12 19 C10.02 19 8.04 19 6 19 C6 21.64 6 24.28 6 27 C7.299375 26.979375 8.59875 26.95875 9.9375 26.9375 C11.29165633 26.91600546 12.64756083 26.92851801 14 27 C15 28 15 28 15 33 C10.05 33 5.1 33 0 33 C0 28.05 0 23.1 0 18 C-0.66 18 -1.32 18 -2 18 C-1.505 16.515 -1.505 16.515 -1 15 C-0.77281504 12.43365139 -0.58391816 9.88321893 -0.4375 7.3125 C-0.39431641 6.61060547 -0.35113281 5.90871094 -0.30664062 5.18554688 C-0.2008264 3.45724794 -0.09993419 1.7286489 0 0 Z " fill="#EECF53" transform="translate(433,449)"/>
<path d="M0 0 C1.9375 1.8125 1.9375 1.8125 3 4 C3 5.32 3 6.64 3 8 C1.35 8 -0.3 8 -2 8 C-2.33 7.34 -2.66 6.68 -3 6 C-3.99 6 -4.98 6 -6 6 C-5.67 8.31 -5.34 10.62 -5 13 C-3.68 13 -2.36 13 -1 13 C2.61075823 18.30330116 4.20861807 22.5457303 3 29 C1.4375 31.5625 1.4375 31.5625 -1 33 C-4.4375 33.5625 -4.4375 33.5625 -8 33 C-10.9375 30.8125 -10.9375 30.8125 -13 28 C-13.3125 25.1875 -13.3125 25.1875 -13 23 C-11.35 23 -9.7 23 -8 23 C-7.34 24.32 -6.68 25.64 -6 27 C-5.01 26.67 -4.02 26.34 -3 26 C-3.10613836 23.54775306 -3.10613836 23.54775306 -4 21 C-5.66072849 20.31867549 -7.327767 19.65257873 -9 19 C-10.1875 16.625 -10.1875 16.625 -11 14 C-11.37125 13.360625 -11.7425 12.72125 -12.125 12.0625 C-13.38841451 9.08445151 -13.52315671 7.20433486 -13 4 C-8.85936092 -0.74658626 -6.31222875 -2.02467715 0 0 Z " fill="#F1D254" transform="translate(476,449)"/>
<path d="M0 0 C4.06161551 1.27423232 6.23454823 4.01097887 8.19140625 7.6875 C8.85307972 11.36346371 8.47803294 13.05692128 6.94140625 16.4375 C5.01597734 18.91305146 4.1806327 19.79881106 1.19140625 20.6875 C-3.95509057 21.25933298 -3.95509057 21.25933298 -6.80859375 20.6875 C-10.39496978 17.78787683 -12.50173232 15.57250591 -13.24609375 11 C-12.71074889 6.94667464 -11.49460744 5.00241521 -8.71875 2.0625 C-5.82273667 -0.02215582 -3.51194895 -0.28523443 0 0 Z " fill="#F7D756" transform="translate(382.80859375,253.3125)"/>
<path d="M0 0 C1.93166016 0.01740234 1.93166016 0.01740234 3.90234375 0.03515625 C5.19269531 0.04417969 6.48304687 0.05320312 7.8125 0.0625 C8.81152344 0.07410156 9.81054688 0.08570313 10.83984375 0.09765625 C10.83984375 1.74765625 10.83984375 3.39765625 10.83984375 5.09765625 C8.19984375 5.42765625 5.55984375 5.75765625 2.83984375 6.09765625 C2.50984375 8.73765625 2.17984375 11.37765625 1.83984375 14.09765625 C3.81984375 14.09765625 5.79984375 14.09765625 7.83984375 14.09765625 C7.83984375 15.74765625 7.83984375 17.39765625 7.83984375 19.09765625 C6.18984375 19.42765625 4.53984375 19.75765625 2.83984375 20.09765625 C2.50984375 22.40765625 2.17984375 24.71765625 1.83984375 27.09765625 C3.13921875 27.07703125 4.43859375 27.05640625 5.77734375 27.03515625 C7.13150008 27.01366171 8.48740458 27.02617426 9.83984375 27.09765625 C10.83984375 28.09765625 10.83984375 28.09765625 10.90234375 30.66015625 C10.88171875 31.46453125 10.86109375 32.26890625 10.83984375 33.09765625 C8.52740583 33.12451037 6.21488105 33.14398466 3.90234375 33.16015625 C2.61457031 33.17175781 1.32679687 33.18335938 0 33.1953125 C-3.16015625 33.09765625 -3.16015625 33.09765625 -4.16015625 32.09765625 C-4.39705412 29.8105682 -4.57484662 27.51722477 -4.72265625 25.22265625 C-4.80644531 23.96710938 -4.89023437 22.7115625 -4.9765625 21.41796875 C-5.22706214 16.88765606 -5.02462474 12.49753791 -4.72265625 7.97265625 C-4.64144531 6.71195312 -4.56023438 5.45125 -4.4765625 4.15234375 C-4.05945423 0.12544667 -4.05945423 0.12544667 0 0 Z " fill="#F1D154" transform="translate(54.16015625,448.90234375)"/>
<path d="M0 0 C1.66611905 -0.042721 3.33382885 -0.04063832 5 0 C6.91803427 1.91803427 6.39731888 5.31075976 6.5625 7.875 C6.64628906 9.13054687 6.73007812 10.38609375 6.81640625 11.6796875 C7.02447665 15.44266286 6.93298413 18.95301185 6.5 22.6875 C6.4071875 23.49574219 6.314375 24.30398438 6.21875 25.13671875 C6.11046875 26.05904297 6.11046875 26.05904297 6 27 C8.64 27 11.28 27 14 27 C14 28.98 14 30.96 14 33 C9.38 33 4.76 33 0 33 C0 28.05 0 23.1 0 18 C-0.66 18 -1.32 18 -2 18 C-1.505 16.515 -1.505 16.515 -1 15 C-0.77281504 12.43365139 -0.58391816 9.88321893 -0.4375 7.3125 C-0.39431641 6.61060547 -0.35113281 5.90871094 -0.30664062 5.18554688 C-0.2008264 3.45724794 -0.09993419 1.7286489 0 0 Z " fill="#EECF53" transform="translate(21,449)"/>
<path d="M0 0 C3.5060303 0.86943897 4.94966563 2.56083702 6.9375 5.48046875 C7.7253128 9.89222045 7.46725133 11.70239649 4.9375 15.41796875 C1.60161401 17.71139037 -0.16234094 18.23862384 -4.125 17.9609375 C-7.6310303 17.09149853 -9.07466563 15.40010048 -11.0625 12.48046875 C-11.8503128 8.06871705 -11.59225133 6.25854101 -9.0625 2.54296875 C-5.72661401 0.24954713 -3.96265906 -0.27768634 0 0 Z " fill="#F5D555" transform="translate(458.0625,131.51953125)"/>
<path d="M0 0 C2.5 1.4375 2.5 1.4375 4 4 C4.60318106 7.13079693 4.65375511 9.87459178 4 13 C1.30081929 16.35352755 -0.31436636 16.90377072 -4.5625 17.5 C-8.51015385 16.9257958 -9.61640965 16.11700276 -12 13 C-13.44430855 10.11138291 -13.37688506 8.20352299 -13 5 C-9.2217441 -0.43124286 -6.19885712 -0.88555102 0 0 Z " fill="#F9D856" transform="translate(412,16)"/>
<path d="M0 0 C2.5 1.5625 2.5 1.5625 4 4 C4.55802097 7.90614682 4.58392818 10.05111671 2.5 13.4375 C-1.24892004 15.78057502 -3.61035762 15.48773804 -8 15 C-10.17476401 13.45661909 -10.81832637 12.36334727 -12 10 C-12.38080215 6.49662019 -12.40245078 4.63721374 -10.5 1.625 C-6.98922596 -0.65700312 -4.07529338 -0.81004807 0 0 Z " fill="#F6D656" transform="translate(460,59)"/>
<path d="M0 0 C2.5 1.5625 2.5 1.5625 4 4 C4.56288002 7.94016013 4.60396028 10.05782196 2.4375 13.4375 C-0.98314143 15.63021887 -3.00951279 15.63007693 -7 15 C-10.42123173 12.52506641 -11.79477021 11.11736219 -12.5625 6.9375 C-12 4 -12 4 -10.5 1.625 C-6.98922596 -0.65700312 -4.07529338 -0.81004807 0 0 Z " fill="#F6D655" transform="translate(377,142)"/>
<path d="M0 0 C2.4375 1.5 2.4375 1.5 4 4 C4.5149217 6.90813732 4.33536988 8.98167108 4 12 C2.41081088 14.191985 1.51233306 14.8969765 -1.15625 15.43359375 C-7.41388944 15.44402315 -7.41388944 15.44402315 -10.0625 13.4375 C-11.36454848 10.05217395 -11.4495791 7.59663278 -11 4 C-8.11188513 -0.5054592 -5.11821063 -0.73117295 0 0 Z " fill="#F9D957" transform="translate(322,3)"/>
<path d="M0 0 C2.4375 1.625 2.4375 1.625 4 4 C4.5625 6.9375 4.5625 6.9375 4 10 C1.51397551 13.36344489 0.08574477 14.80057749 -4.0625 15.5625 C-7 15 -7 15 -9.375 13.5 C-11.82483134 9.73102871 -11.5659239 7.45665069 -11 3 C-8.06403859 -0.7580306 -4.50318499 -0.56289812 0 0 Z " fill="#F4D455" transform="translate(354,264)"/>
<path d="M0 0 C3.5 0.5625 3.5 0.5625 5.9375 2.125 C8.10396028 5.50467804 8.06288002 7.62233987 7.5 11.5625 C5.9375 14 5.9375 14 3.5 15.5625 C-0.47487617 16.13033945 -2.56489221 16.18590519 -5.9375 13.9375 C-7.98384007 10.82706309 -8.09807728 9.22572334 -7.5 5.5625 C-5.39039736 1.68083115 -4.40778028 0.70839326 0 0 Z " fill="#F4D555" transform="translate(357.5,66.4375)"/>
<path d="M0 0 C3.375 0.6875 3.375 0.6875 4.375 1.6875 C4.83006692 7.83090344 4.83006692 7.83090344 3.3125 10.6875 C0.18258074 12.3029422 -2.30674093 11.48634015 -5.625 10.6875 C-7.14650158 7.64449684 -6.86399393 5.033415 -6.625 1.6875 C-3.625 -0.3125 -3.625 -0.3125 0 0 Z " fill="#F7D756" transform="translate(425.625,106.3125)"/>
<path d="M0 0 C2.475 0.495 2.475 0.495 5 1 C5 7.27 5 13.54 5 20 C3.35 20.33 1.7 20.66 0 21 C0 14.07 0 7.14 0 0 Z " fill="#0C0A04" transform="translate(219,455)"/>
<path d="M0 0 C2.475 0.495 2.475 0.495 5 1 C5 7.27 5 13.54 5 20 C3.68 20.33 2.36 20.66 1 21 C0 20 0 20 -0.11352539 18.05053711 C-0.10567017 16.8015564 -0.10567017 16.8015564 -0.09765625 15.52734375 C-0.09443359 14.62822266 -0.09121094 13.72910156 -0.08789062 12.80273438 C-0.07951172 11.85720703 -0.07113281 10.91167969 -0.0625 9.9375 C-0.05798828 8.98810547 -0.05347656 8.03871094 -0.04882812 7.06054688 C-0.0370011 4.70696935 -0.02052025 2.35351523 0 0 Z " fill="#0C0A04" transform="translate(341,455)"/>
<path d="M0 0 C1.32 0 2.64 0 4 0 C4 6.6 4 13.2 4 20 C2.68 20.33 1.36 20.66 0 21 C-1.55606751 19.44393249 -1.12970769 17.94042629 -1.1328125 15.78125 C-1.13410156 14.93175781 -1.13539062 14.08226562 -1.13671875 13.20703125 C-1.13285156 12.31371094 -1.12898438 11.42039062 -1.125 10.5 C-1.12886719 9.60667969 -1.13273437 8.71335937 -1.13671875 7.79296875 C-1.13542969 6.94347656 -1.13414063 6.09398437 -1.1328125 5.21875 C-1.13168457 4.43435547 -1.13055664 3.64996094 -1.12939453 2.84179688 C-1 1 -1 1 0 0 Z " fill="#100E05" transform="translate(87,455)"/>
<path d="M0 0 C2.0625 0.4375 2.0625 0.4375 4 1 C4 2.98 4 4.96 4 7 C4.99 7.33 5.98 7.66 7 8 C5.02 8 3.04 8 1 8 C1.34444881 10.47266765 1.34444881 10.47266765 2 13 C2.66 13.33 3.32 13.66 4 14 C4 15.98 4 17.96 4 20 C2.0625 20.5625 2.0625 20.5625 0 21 C-1.55606751 19.44393249 -1.12970769 17.94042629 -1.1328125 15.78125 C-1.13410156 14.93175781 -1.13539063 14.08226562 -1.13671875 13.20703125 C-1.13285156 12.31371094 -1.12898438 11.42039062 -1.125 10.5 C-1.12886719 9.60667969 -1.13273437 8.71335937 -1.13671875 7.79296875 C-1.13542969 6.94347656 -1.13414062 6.09398437 -1.1328125 5.21875 C-1.13168457 4.43435547 -1.13055664 3.64996094 -1.12939453 2.84179688 C-1 1 -1 1 0 0 Z " fill="#100E05" transform="translate(408,455)"/>
<path d="M0 0 C0.99 0.33 1.98 0.66 3 1 C3 7.93 3 14.86 3 22 C1.68 22 0.36 22 -1 22 C-1.02887814 18.52085059 -1.04675687 15.04173169 -1.0625 11.5625 C-1.07087891 10.56927734 -1.07925781 9.57605469 -1.08789062 8.55273438 C-1.09111328 7.60849609 -1.09433594 6.66425781 -1.09765625 5.69140625 C-1.10289307 4.81685791 -1.10812988 3.94230957 -1.11352539 3.04125977 C-1 1 -1 1 0 0 Z " fill="#050401" transform="translate(254,454)"/>
<path d="M0 0 C2.475 0.495 2.475 0.495 5 1 C5 3.31 5 5.62 5 8 C3.02 8.99 3.02 8.99 1 10 C0 9 0 9 -0.09765625 6.93359375 C-0.08605469 6.10988281 -0.07445312 5.28617187 -0.0625 4.4375 C-0.05347656 3.61121094 -0.04445313 2.78492188 -0.03515625 1.93359375 C-0.02355469 1.29550781 -0.01195312 0.65742188 0 0 Z " fill="#0C0B04" transform="translate(375,455)"/>
<path d="M0 0 C2.475 0.495 2.475 0.495 5 1 C5 3.31 5 5.62 5 8 C3.35 8.33 1.7 8.66 0 9 C0 6.03 0 3.06 0 0 Z " fill="#131106" transform="translate(187,455)"/>
<path d="M0 0 C2.475 0.495 2.475 0.495 5 1 C4.67 3.31 4.34 5.62 4 8 C2.68 8 1.36 8 0 8 C0 5.36 0 2.72 0 0 Z " fill="#0D0B04" transform="translate(309,468)"/>
<path d="M0 0 C1.32 0.33 2.64 0.66 4 1 C4 2.65 4 4.3 4 6 C2.68 6 1.36 6 0 6 C0 4.02 0 2.04 0 0 Z " fill="#040401" transform="translate(309,455)"/>
</svg>
